# xmcd CD database file
#
# Track frame offsets:
#	150
#	15848
#	29692
#	43407
#	60075
#	72652
#	88526
#	105804
#	121057
#	135737
#	151551
#	169411
#	182695
#	203888
#	218703
#	231781
#
# Disc length: 3283 seconds
#
# Revision: 0
# Processed by: cddbd v1.5.2PL0 Copyright (c) Steve Scherf et al.
# Submitted via: CDex 1.70beta2
#
DISCID=cc0cd110
DTITLE=Tanya Tucker - The Best Of Tanya Tucker
DYEAR=2007
DGENRE=Country
TTITLE0=Old Weakness (Coming On Strong)
TTITLE1=If Your Heart Ain't Busy Tonight
TTITLE2=Without You What Do I Do With Me
TTITLE3=Little Things
TTITLE4=Don't Believe My Heart Can Stand Another You
TTITLE5=Here's Some Love
TTITLE6=Spring
TTITLE7=Don't Go Out With Him (with T. Graham Brown)
TTITLE8=Can I See You Tonight
TTITLE9=Soon
TTITLE10=Tell Me About It (with Delbert McClinton)
TTITLE11=Daddy And Home
TTITLE12=My Arms Stay Open All Night
TTITLE13=I Don't Want To Be Just Another Love
TTITLE14=One Love At A Time
TTITLE15=You've Got Me To Hold On To
EXTD=YEAR: 2007
EXTT0=
EXTT1=
EXTT2=
EXTT3=
EXTT4=
EXTT5=
EXTT6=
EXTT7=
EXTT8=
EXTT9=
EXTT10=
EXTT11=
EXTT12=
EXTT13=
EXTT14=
EXTT15=
PLAYORDER=
